<?xml version="1.0" encoding="utf-8"?>
<!-- Generator: Adobe Illustrator 16.0.0, SVG Export Plug-In . SVG Version: 6.00 Build 0)  -->
<!DOCTYPE svg PUBLIC "-//W3C//DTD SVG 1.0//EN" "http://www.w3.org/TR/2001/REC-SVG-20010904/DTD/svg10.dtd">
<svg version="1.0" id="Layer_1" xmlns="http://www.w3.org/2000/svg" xmlns:xlink="http://www.w3.org/1999/xlink" x="0px" y="0px"
	 width="800px" height="800px" viewBox="0 0 800 800" enable-background="new 0 0 800 800" xml:space="preserve">
<g id="g10" transform="matrix(7.8393 0 0 -7.8393 5 85.729)">
	<g id="g12" transform="scale(.1)">
		<path id="path14" fill="#6485C1" d="M160.891-330.634v-29.613h45.043v-110.83h31.894v110.83h45.042v29.613H160.891z"/>
		<path id="path16" fill="#6485C1" d="M685.922-330.634h-80.329v-29.854h78.152c11.518,0,15.978-5.253,15.978-18.634v-5.004h-64.82
			c-24.668,0-36.908-12.302-36.908-40.166v-6.637c0-28.637,12.724-40.149,38.301-40.149h95.026v92.307
			C731.321-343.435,719.621-330.634,685.922-330.634 M639.611-441.055c-4.828,0-10.25,2.407-10.25,14.479
			c0,12.059,5.294,14.169,10.25,14.169h60.111v-28.648H639.611z"/>
		<path id="path18" fill="#6485C1" d="M950.753-330.634h-80.315v-29.854h78.202c11.451,0,15.915-5.253,15.915-18.634v-5.004h-64.753
			c-24.673,0-36.961-12.302-36.961-40.166v-6.637c0-28.637,12.721-40.149,38.284-40.149h95.026v92.307
			C996.153-343.435,984.453-330.634,950.753-330.634 M904.442-441.055c-4.828,0-10.245,2.407-10.245,14.479
			c0,12.059,5.307,14.169,10.245,14.169h60.114v-28.648H904.442z"/>
		<path id="path20" fill="#6485C1" d="M292.999-330.634v-29.613h45.042v-110.83h31.971v110.83h45.045v29.613H292.999z"/>
		<path id="path22" fill="#6485C1" d="M737.712-330.634v-29.613h45.041v-110.83h31.893v110.83h45.045v29.613H737.712z"/>
		<path id="path24" fill="#6485C1" d="M585.646-421.883v42.035c0,36.729-14.231,49.151-46.431,49.151h-85.444v-140.378h86.942
			C574.841-471.076,585.646-454.082,585.646-421.883 M553.078-422.546c0-13.382-4.522-18.634-15.978-18.634h-51.377v80.625H537.1
			c11.456,0,15.978-5.245,15.978-18.752V-422.546z"/>
		<path id="path26" fill="#6485C1" d="M115.848-437.608c-0.663,1.268-43.234,84.298-48.486,92.494
			c-6.019,9.4-13.321,15.978-27.305,15.978c-13.03,0-28.466-5.727-28.466-37.017v-104.987h31.417v87.561
			c0,6.265-0.356,15.618-0.422,17.486c-0.061,1.562,0,3.01,0.789,3.432c0.833,0.554,1.743-0.297,2.407-1.441
			c0.603-1.218,40.092-79.353,48.534-92.554c5.976-9.479,13.339-15.99,27.321-15.99c13.031,0,28.407,5.788,28.407,37.028v104.987
			h-31.417v-87.561c0-6.326,0.356-15.619,0.476-17.486c0-1.512,0-3.008-0.783-3.442c-0.911-0.543-1.809,0.306-2.473,1.512"/>
	</g>
</g>
</svg>
